<svg xmlns="http://www.w3.org/2000/svg" xmlns:xlink="http://www.w3.org/1999/xlink" width="262" height="97" viewBox="0 0 262 97">
  <defs>
    <clipPath id="clip-SkillSurvey-icims">
      <rect width="262" height="97"/>
    </clipPath>
  </defs>
  <g id="SkillSurvey-icims" clip-path="url(#clip-SkillSurvey-icims)">
    <g id="Skillsurvey-Logo" transform="translate(-19.064 -103)">
      <g id="Group_2" data-name="Group 2">
        <g id="Group_3" data-name="Group 3">
          <g id="Group_1" data-name="Group 1">
            <path id="Path_1" data-name="Path 1" d="M24.6,183.4a4.171,4.171,0,0,1,3.6,1.7v-1.5h2.2V194H28.2v-1.6a4.516,4.516,0,0,1-3.7,1.7c-2.7,0-4.9-2.2-4.9-5.5A4.884,4.884,0,0,1,24.6,183.4Zm.5,1.8a3.238,3.238,0,0,0-3.2,3.5,3.218,3.218,0,1,0,3.2-3.5Z" fill="#707070"/>
            <path id="Path_2" data-name="Path 2" d="M40.7,188.1c0-1.9-1-2.9-2.6-2.9s-2.6,1-2.6,2.9V194H33.3V183.5h2.2v1.2a3.95,3.95,0,0,1,3.1-1.4c2.5,0,4.3,1.5,4.3,4.5V194H40.8v-5.9Z" fill="#707070"/>
            <path id="Path_3" data-name="Path 3" d="M50.3,180.8a1.4,1.4,0,1,1,1.4,1.4A1.5,1.5,0,0,1,50.3,180.8Zm.3,2.7h2.2V194H50.6Z" fill="#707070"/>
            <path id="Path_4" data-name="Path 4" d="M61.6,180.6a6.2,6.2,0,0,1,6.1,4H65.1a3.747,3.747,0,0,0-3.5-2.1,4.443,4.443,0,0,0-4.5,4.8c0,2.9,1.9,4.9,4.5,4.9a3.65,3.65,0,0,0,3.5-2.1h2.6a6.292,6.292,0,0,1-6.1,4,6.75,6.75,0,0,1,0-13.5Z" fill="#707070"/>
            <path id="Path_5" data-name="Path 5" d="M70.3,180.8h2.2V194H70.3Z" fill="#707070"/>
            <path id="Path_6" data-name="Path 6" d="M75.3,180.8h2.3l4.6,10.4,4.6-10.4h2.3V194H87v-9l-4,9H81.5l-4-9v9H75.3Z" fill="#707070"/>
            <path id="Path_7" data-name="Path 7" d="M96.4,194.1c-2.6,0-4.7-1.4-4.7-3.8H94a2.184,2.184,0,0,0,2.4,2c1.5,0,2.4-.8,2.4-1.9,0-3.2-7-1.1-7-6,0-2.3,1.8-3.8,4.5-3.8,2.5,0,4.3,1.3,4.5,3.6H98.4a2.038,2.038,0,0,0-2.2-1.7c-1.3,0-2.2.6-2.2,1.8,0,3,7,1.1,7,5.9C101,192.2,99.3,194.1,96.4,194.1Z" fill="#707070"/>
            <path id="Path_8" data-name="Path 8" d="M112.9,183.4a4.529,4.529,0,0,1,4.8,3.5h-2.3a2.532,2.532,0,0,0-2.5-1.7c-1.7,0-2.9,1.3-2.9,3.6s1.2,3.6,2.9,3.6a2.416,2.416,0,0,0,2.5-1.7h2.3a4.7,4.7,0,0,1-4.8,3.5c-3,0-5.1-2.1-5.1-5.4A4.914,4.914,0,0,1,112.9,183.4Z" fill="#707070"/>
            <path id="Path_9" data-name="Path 9" d="M124.4,194.2a5.042,5.042,0,0,1-5.2-5.4,5.3,5.3,0,1,1,5.2,5.4Zm0-1.9a3.238,3.238,0,0,0,3.2-3.5,3.184,3.184,0,0,0-3.2-3.5c-1.6,0-3.1,1.1-3.1,3.5S122.8,192.3,124.4,192.3Z" fill="#707070"/>
            <path id="Path_10" data-name="Path 10" d="M146.8,188.1c0-1.9-1-2.9-2.6-2.9s-2.6,1-2.6,2.9V194h-2.1v-5.9c0-1.9-1-2.9-2.6-2.9s-2.6,1-2.6,2.9V194H132V183.5h2.2v1.2a3.809,3.809,0,0,1,3.1-1.4,4.094,4.094,0,0,1,3.8,2.1,3.967,3.967,0,0,1,3.6-2.1c2.5,0,4.3,1.5,4.3,4.5V194h-2.1v-5.9Z" fill="#707070"/>
            <path id="Path_11" data-name="Path 11" d="M157.5,183.4c2.8,0,4.9,2.1,4.9,5.4s-2.2,5.5-4.9,5.5a4.591,4.591,0,0,1-3.6-1.7v6.5h-2.2V183.7h2.2v1.5A4.252,4.252,0,0,1,157.5,183.4Zm-.4,1.8a3.3,3.3,0,0,0-3.2,3.5,3.238,3.238,0,0,0,3.2,3.5,3.329,3.329,0,0,0,3.2-3.6A3.149,3.149,0,0,0,157.1,185.2Z" fill="#707070"/>
            <path id="Path_12" data-name="Path 12" d="M168.8,183.4a4.171,4.171,0,0,1,3.6,1.7v-1.5h2.2V194h-2.2v-1.6a4.516,4.516,0,0,1-3.7,1.7c-2.7,0-4.9-2.2-4.9-5.5A4.884,4.884,0,0,1,168.8,183.4Zm.5,1.8a3.238,3.238,0,0,0-3.2,3.5,3.218,3.218,0,1,0,3.2-3.5Z" fill="#707070"/>
            <path id="Path_13" data-name="Path 13" d="M184.9,188.1c0-1.9-1-2.9-2.6-2.9s-2.6,1-2.6,2.9V194h-2.2V183.5h2.2v1.2a3.95,3.95,0,0,1,3.1-1.4c2.5,0,4.3,1.5,4.3,4.5V194H185v-5.9Z" fill="#707070"/>
            <path id="Path_14" data-name="Path 14" d="M197,183.5h2.2l-6.4,15.4h-2.2l2.1-5.1-4.1-10.3H191l2.9,8Z" fill="#707070"/>
          </g>
          <g id="Group_1478" transform="translate(-470 -13.6)">
            <g id="Group_1479" transform="translate(489 116.6)">
              <g id="Group_1478-2">
                <path id="Path_1528" d="M225.6,15.4H211a1.028,1.028,0,0,0-1,1.1v.1a1.188,1.188,0,0,0,1,1.2h14.6a1.028,1.028,0,0,0,1-1.1v-.1a1.043,1.043,0,0,0-1-1.2h0" fill="#dfe1df"/>
                <path id="Path_1529" d="M225.6,77.1H211a1.028,1.028,0,0,0-1,1.1v.1a1.188,1.188,0,0,0,1,1.2h14.6a1.028,1.028,0,0,0,1-1.1v-.1a1.043,1.043,0,0,0-1-1.2h0" fill="#dfe1df"/>
                <path id="Path_1530" d="M230.8,0H211a1.028,1.028,0,0,0-1,1.1v.1a1.188,1.188,0,0,0,1,1.2h19.8a1.028,1.028,0,0,0,1-1.1V1.2a1,1,0,0,0-1-1.2h0" fill="#dfe1df"/>
                <path id="Path_1531" d="M230.8,92.6H211a.972.972,0,0,0-1,1.1v.1a1.188,1.188,0,0,0,1,1.2h19.8a1.028,1.028,0,0,0,1-1.1v-.1a.965.965,0,0,0-1-1.2h0" fill="#dfe1df"/>
                <path id="Path_1532" d="M250.2,50.7V63a1.5,1.5,0,0,1-3,0V50.7L235.7,32.9a1.577,1.577,0,0,1,.5-2.1,1.443,1.443,0,0,1,2,.3v.1l10.5,16.3,10.5-16.3a1.432,1.432,0,0,1,2-.4h.1a1.6,1.6,0,0,1,.5,2.1Z" fill="#f47920"/>
                <path id="Path_1533" d="M26.3,64.4a1.473,1.473,0,0,1-1.5-1.5h0v-31a1.538,1.538,0,0,1,1.5-1.5h0a1.453,1.453,0,0,1,1.5,1.4V48.7L44.5,30.9a1.335,1.335,0,0,1,2,0V31a1.677,1.677,0,0,1,.1,2.2l-11.3,12L46.4,62a1.633,1.633,0,0,1-.6,2.2,1.884,1.884,0,0,1-.8.2,1.306,1.306,0,0,1-1.2-.7L33.1,47.5l-5.3,5.7V63a1.394,1.394,0,0,1-1.5,1.4h0" fill="#16211f"/>
                <path id="Path_1534" d="M10,64.9c-4.9,0-8.1-2.3-9.5-4.5a1.955,1.955,0,0,1-.4-1.6,1.419,1.419,0,0,1,.8-.9c.2-.1.4-.1.6-.2A2.513,2.513,0,0,1,3,59c.9,1.5,3.4,3.1,7.1,3.1,4.4,0,7.3-2.6,7.3-6.4,0-3.7-3.3-5.4-7.2-7.1C5.1,46.5.9,44.3.9,38.8.9,33.7,5,30,10.6,30c3.6,0,7,1.7,8.5,4.1a1.828,1.828,0,0,1,.3,1.6,1.345,1.345,0,0,1-.9.9c-.8.4-1.6,0-2.2-1.1-.7-1.4-3.4-2.6-5.9-2.6-3.8,0-6.6,2.4-6.6,5.7,0,3.7,3.1,5.3,7.5,7.1,4.8,2,9.1,4.2,9.1,9.8-.1,5.6-4.3,9.5-10.4,9.4" fill="#16211f"/>
                <path id="Path_1535" d="M54.2,64.4A1.453,1.453,0,0,1,52.7,63V31.9a1.453,1.453,0,0,1,1.4-1.5h.1a1.473,1.473,0,0,1,1.5,1.5h0v31a1.417,1.417,0,0,1-1.5,1.5h0" fill="#16211f"/>
                <path id="Path_1536" d="M78.6,64.4H63.7a1.473,1.473,0,0,1-1.5-1.5h0v-31a1.538,1.538,0,0,1,1.5-1.5h0a1.453,1.453,0,0,1,1.5,1.4V61.3H78.6A1.391,1.391,0,0,1,80,62.8v.1a1.338,1.338,0,0,1-1.4,1.5h0" fill="#16211f"/>
                <path id="Path_1537" d="M100.6,64.4H85.7a1.473,1.473,0,0,1-1.5-1.5h0v-31a1.561,1.561,0,0,1,1.6-1.5,1.538,1.538,0,0,1,1.5,1.5V61.3h13.4a1.391,1.391,0,0,1,1.4,1.5v.1a1.473,1.473,0,0,1-1.5,1.5h0" fill="#16211f"/>
                <path id="Path_1538" d="M114.7,64.9c-4.9,0-8.1-2.3-9.5-4.5a1.955,1.955,0,0,1-.4-1.6,1.419,1.419,0,0,1,.8-.9c.2-.1.4-.1.6-.2a1.8,1.8,0,0,1,1.5,1.1c.9,1.5,3.4,3.1,7.1,3.1,4.4,0,7.3-2.6,7.3-6.4,0-3.7-3.3-5.4-7.2-7.1-5.1-2.1-9.3-4.3-9.3-9.8,0-5.1,4.1-8.8,9.7-8.8,3.6,0,7,1.7,8.5,4.1a1.828,1.828,0,0,1,.3,1.6,1.345,1.345,0,0,1-.9.9c-.8.4-1.6,0-2.2-1.1-.7-1.4-3.4-2.6-5.9-2.6-3.8,0-6.6,2.4-6.6,5.7,0,3.7,3.1,5.3,7.5,7.1,4.8,2,9.1,4.2,9.1,9.8-.1,5.8-4.3,9.7-10.4,9.6" fill="#f47920"/>
                <path id="Path_1539" d="M140.8,65c-7.2,0-11.3-4.5-11.3-12.3V31.9a1.5,1.5,0,0,1,3,0V52.5c0,6.3,2.9,9.6,8.4,9.6s8.4-3.3,8.4-9.5V31.9a1.5,1.5,0,0,1,3,0V52.6c0,7.9-4.2,12.4-11.5,12.4" fill="#f47920"/>
                <path id="Path_1540" d="M230.4,33.6h-19A1.424,1.424,0,0,1,210,32h0a1.537,1.537,0,0,1,1.4-1.6h19.1a1.424,1.424,0,0,1,1.4,1.6h0a1.624,1.624,0,0,1-1.5,1.6h0" fill="#f47920"/>
                <path id="Path_1541" d="M225.2,49H211.4a1.424,1.424,0,0,1-1.4-1.6h0a1.537,1.537,0,0,1,1.4-1.6h13.9a1.424,1.424,0,0,1,1.4,1.6h0a1.5,1.5,0,0,1-1.5,1.6h0" fill="#f47920"/>
                <path id="Path_1542" d="M230.4,64.4h-19a1.556,1.556,0,0,1-1.4-1.7,1.5,1.5,0,0,1,1.4-1.4h19a1.424,1.424,0,0,1,1.4,1.6h0a1.338,1.338,0,0,1-1.4,1.5h0" fill="#f47920"/>
                <path id="Path_1543" d="M160.4,47.7h8.2a7.2,7.2,0,0,0,0-14.4h-8.2Zm17.2,16.7a1.306,1.306,0,0,1-1.2-.7l-8.8-13.3h-7.3V63a1.5,1.5,0,0,1-3,0V32a1.561,1.561,0,0,1,1.5-1.6h9.7a10.055,10.055,0,0,1,9.6,10.5,10.175,10.175,0,0,1-7.1,9.2L178.8,62a1.577,1.577,0,0,1-.5,2.1.779.779,0,0,1-.7.3" fill="#f47920"/>
                <path id="Path_1544" d="M193.7,64.5a1.5,1.5,0,0,1-1.4-1.1L180.6,32.5a1.656,1.656,0,0,1,0-1.2,2.047,2.047,0,0,1,.8-.8,1.431,1.431,0,0,1,1.9.8v.1l10.3,27.2L204,31.4a1.478,1.478,0,0,1,1.9-.8h.1a1.553,1.553,0,0,1,.9,2h0L195.2,63.5a2.263,2.263,0,0,1-1.5,1" fill="#f47920"/>
              </g>
            </g>
          </g>
        </g>
      </g>
    </g>
  </g>
</svg>
